<svg width="100%" viewBox="0 0 680 500" role="img" xmlns="http://www.w3.org/2000/svg">
<title>Irregular hawker centre safe-distancing instance: unsolved</title>
<desc>Fifteen candidate hawker tables on a white background, all shown neutral. Dark lines join every pair closer than the required separation. No table is yet marked open or closed.</desc>
<rect x="0" y="0" width="680" height="500" fill="#FFFFFF"/>
<line x1="243.2" y1="239.7" x2="223.9" y2="331.6" stroke="#5F5E5A" stroke-width="1.1" opacity="0.9"/>
<line x1="243.2" y1="239.7" x2="331.9" y2="268.0" stroke="#5F5E5A" stroke-width="1.1" opacity="0.9"/>
<line x1="243.2" y1="239.7" x2="303.0" y2="339.3" stroke="#5F5E5A" stroke-width="1.1" opacity="0.9"/>
<line x1="243.2" y1="239.7" x2="315.4" y2="198.1" stroke="#5F5E5A" stroke-width="1.1" opacity="0.9"/>
<line x1="243.2" y1="239.7" x2="196.4" y2="156.3" stroke="#5F5E5A" stroke-width="1.1" opacity="0.9"/>
<line x1="117.0" y1="272.5" x2="223.9" y2="331.6" stroke="#5F5E5A" stroke-width="1.1" opacity="0.9"/>
<line x1="117.0" y1="272.5" x2="120.7" y2="154.9" stroke="#5F5E5A" stroke-width="1.1" opacity="0.9"/>
<line x1="223.9" y1="331.6" x2="331.9" y2="268.0" stroke="#5F5E5A" stroke-width="1.1" opacity="0.9"/>
<line x1="223.9" y1="331.6" x2="303.0" y2="339.3" stroke="#5F5E5A" stroke-width="1.1" opacity="0.9"/>
<line x1="120.7" y1="154.9" x2="196.4" y2="156.3" stroke="#5F5E5A" stroke-width="1.1" opacity="0.9"/>
<line x1="331.9" y1="268.0" x2="303.0" y2="339.3" stroke="#5F5E5A" stroke-width="1.1" opacity="0.9"/>
<line x1="331.9" y1="268.0" x2="415.1" y2="268.5" stroke="#5F5E5A" stroke-width="1.1" opacity="0.9"/>
<line x1="331.9" y1="268.0" x2="395.0" y2="361.3" stroke="#5F5E5A" stroke-width="1.1" opacity="0.9"/>
<line x1="331.9" y1="268.0" x2="315.4" y2="198.1" stroke="#5F5E5A" stroke-width="1.1" opacity="0.9"/>
<line x1="303.0" y1="339.3" x2="395.0" y2="361.3" stroke="#5F5E5A" stroke-width="1.1" opacity="0.9"/>
<line x1="415.1" y1="268.5" x2="395.0" y2="361.3" stroke="#5F5E5A" stroke-width="1.1" opacity="0.9"/>
<line x1="415.1" y1="268.5" x2="509.4" y2="272.1" stroke="#5F5E5A" stroke-width="1.1" opacity="0.9"/>
<line x1="415.1" y1="268.5" x2="434.9" y2="147.9" stroke="#5F5E5A" stroke-width="1.1" opacity="0.9"/>
<line x1="415.1" y1="268.5" x2="475.8" y2="344.5" stroke="#5F5E5A" stroke-width="1.1" opacity="0.9"/>
<line x1="415.1" y1="268.5" x2="315.4" y2="198.1" stroke="#5F5E5A" stroke-width="1.1" opacity="0.9"/>
<line x1="395.0" y1="361.3" x2="475.8" y2="344.5" stroke="#5F5E5A" stroke-width="1.1" opacity="0.9"/>
<line x1="509.4" y1="272.1" x2="495.8" y2="165.0" stroke="#5F5E5A" stroke-width="1.1" opacity="0.9"/>
<line x1="509.4" y1="272.1" x2="475.8" y2="344.5" stroke="#5F5E5A" stroke-width="1.1" opacity="0.9"/>
<line x1="541.3" y1="118.7" x2="495.8" y2="165.0" stroke="#5F5E5A" stroke-width="1.1" opacity="0.9"/>
<line x1="541.3" y1="118.7" x2="434.9" y2="147.9" stroke="#5F5E5A" stroke-width="1.1" opacity="0.9"/>
<line x1="495.8" y1="165.0" x2="434.9" y2="147.9" stroke="#5F5E5A" stroke-width="1.1" opacity="0.9"/>
<line x1="434.9" y1="147.9" x2="315.4" y2="198.1" stroke="#5F5E5A" stroke-width="1.1" opacity="0.9"/>
<line x1="315.4" y1="198.1" x2="196.4" y2="156.3" stroke="#5F5E5A" stroke-width="1.1" opacity="0.9"/>
<circle cx="243.2" cy="239.7" r="22" fill="#E3E1DA" stroke="#6B6963" stroke-width="1.6"/>
<circle cx="117.0" cy="272.5" r="22" fill="#E3E1DA" stroke="#6B6963" stroke-width="1.6"/>
<circle cx="223.9" cy="331.6" r="22" fill="#E3E1DA" stroke="#6B6963" stroke-width="1.6"/>
<circle cx="120.7" cy="154.9" r="22" fill="#E3E1DA" stroke="#6B6963" stroke-width="1.6"/>
<circle cx="331.9" cy="268.0" r="22" fill="#E3E1DA" stroke="#6B6963" stroke-width="1.6"/>
<circle cx="303.0" cy="339.3" r="22" fill="#E3E1DA" stroke="#6B6963" stroke-width="1.6"/>
<circle cx="415.1" cy="268.5" r="22" fill="#E3E1DA" stroke="#6B6963" stroke-width="1.6"/>
<circle cx="395.0" cy="361.3" r="22" fill="#E3E1DA" stroke="#6B6963" stroke-width="1.6"/>
<circle cx="509.4" cy="272.1" r="22" fill="#E3E1DA" stroke="#6B6963" stroke-width="1.6"/>
<circle cx="541.3" cy="118.7" r="22" fill="#E3E1DA" stroke="#6B6963" stroke-width="1.6"/>
<circle cx="495.8" cy="165.0" r="22" fill="#E3E1DA" stroke="#6B6963" stroke-width="1.6"/>
<circle cx="434.9" cy="147.9" r="22" fill="#E3E1DA" stroke="#6B6963" stroke-width="1.6"/>
<circle cx="475.8" cy="344.5" r="22" fill="#E3E1DA" stroke="#6B6963" stroke-width="1.6"/>
<circle cx="315.4" cy="198.1" r="22" fill="#E3E1DA" stroke="#6B6963" stroke-width="1.6"/>
<circle cx="196.4" cy="156.3" r="22" fill="#E3E1DA" stroke="#6B6963" stroke-width="1.6"/>
<circle cx="175" cy="465" r="10" fill="#E3E1DA" stroke="#6B6963" stroke-width="1.6"/>
<text class="t" fill="#1F1F1E" x="191" y="465" dominant-baseline="central">Candidate table</text>
<line x1="355" y1="465" x2="391" y2="465" stroke="#5F5E5A" stroke-width="1.6"/>
<text class="t" fill="#1F1F1E" x="399" y="465" dominant-baseline="central">Closer than D</text>
</svg>